<?xml version="1.0" encoding="utf-8"?>
<!-- Generator: Adobe Illustrator 21.0.2, SVG Export Plug-In . SVG Version: 6.00 Build 0)  -->
<svg version="1.1" xmlns="http://www.w3.org/2000/svg" xmlns:xlink="http://www.w3.org/1999/xlink" x="0px" y="0px"
	 viewBox="0 0 266 256" style="enable-background:new 0 0 266 256;" xml:space="preserve">
<style type="text/css">
	.st0{fill:#07537D;stroke:#7F7B7A;stroke-width:4;}
	.st1{fill:#FFFFFF;}
</style>
<g id="Layer_2">
	<circle class="st0" cx="135" cy="124.5" r="119"/>
</g>
<g id="Layer_1">
	<g id="Layer_0">
	</g>
	<path class="st1" d="M162.8,155.5h-14.4v14.4h14.4V155.5z M142.6,117h-14.4v14.4h14.4V117z M162.8,136.3h-14.4v14.4h14.4V136.3z
		 M183.1,117h-14.4v14.4h14.4V117z M142.6,136.3h-14.4v14.4h14.4V136.3z M162.8,117h-14.4v14.4h14.4V117z M183.1,136.3h-14.4v14.4
		h14.4V136.3z M102,155.5H87.7v14.4H102V155.5z M102,136.3H87.7v14.4H102V136.3z M179.4,66.3v6.3c2.5,2.2,4.1,5.4,4.1,9
		c0,6.6-5.4,12-12,12c-6.6,0-12-5.4-12-12c0-3.6,1.6-6.8,4.1-9v-6.3h-56v6.3c2.5,2.2,4.1,5.4,4.1,9c0,6.6-5.4,12-12,12
		c-6.6,0-12-5.4-12-12c0-3.6,1.6-6.8,4.1-9v-6.3H65v127.5h140V66.3H179.4z M192.2,181H77.8v-79.6h114.4V181L192.2,181z M122.3,117
		h-14.4v14.4h14.4V117L122.3,117z M122.3,155.5h-14.4v14.4h14.4V155.5L122.3,155.5z M142.6,155.5h-14.4v14.4h14.4V155.5z
		 M122.3,136.3h-14.4v14.4h14.4V136.3L122.3,136.3z M99.6,88.6c3.3,0,6-2.7,6-6V61.1c0-3.3-2.7-6-6-6c-3.3,0-6,2.7-6,6v21.5
		C93.7,85.9,96.3,88.6,99.6,88.6 M171.5,88.6c3.3,0,6-2.7,6-6V61.1c0-3.3-2.7-6-6-6c-3.3,0-6,2.7-6,6v21.5
		C165.5,85.9,168.2,88.6,171.5,88.6"/>
</g>
</svg>
