<?xml version="1.0" encoding="UTF-8" standalone="no"?>
<!-- Created with Inkscape (http://www.inkscape.org/) -->

<svg
   xmlns:dc="http://purl.org/dc/elements/1.1/"
   xmlns:cc="http://creativecommons.org/ns#"
   xmlns:rdf="http://www.w3.org/1999/02/22-rdf-syntax-ns#"
   xmlns:svg="http://www.w3.org/2000/svg"
   xmlns="http://www.w3.org/2000/svg"
   xmlns:sodipodi="http://sodipodi.sourceforge.net/DTD/sodipodi-0.dtd"
   xmlns:inkscape="http://www.inkscape.org/namespaces/inkscape"
   width="3in"
   height="3in"
   viewBox="0 0 270 270"
   id="svg2"
   version="1.1"
   inkscape:version="0.91 r13725"
   sodipodi:docname="open_source_club_logo-trans.svg"
   inkscape:export-filename="C:\Users\Eli\Desktop\osc_logo_5000.png"
   inkscape:export-xdpi="1666.67"
   inkscape:export-ydpi="1666.67"
   style="enable-background:new"
   enable-background="new">
  <defs
     id="defs4">
    <clipPath
       id="clipPath4220"
       clipPathUnits="userSpaceOnUse">
      <path
         inkscape:connector-curvature="0"
         id="path4222"
         d="m 294,461 25.508,0 0,-14 -25.508,0 0,14 z" />
    </clipPath>
    <clipPath
       id="clipPath4230"
       clipPathUnits="userSpaceOnUse">
      <path
         inkscape:connector-curvature="0"
         id="path4232"
         d="m 234.598,503.043 84.91,0 0,-84.859 -84.91,0 0,84.859 z" />
    </clipPath>
  </defs>
  <sodipodi:namedview
     id="base"
     pagecolor="#ffffff"
     bordercolor="#666666"
     borderopacity="0.63921569"
     inkscape:pageopacity="0"
     inkscape:pageshadow="2"
     inkscape:zoom="2"
     inkscape:cx="161.275"
     inkscape:cy="144.47512"
     inkscape:document-units="in"
     inkscape:current-layer="g4167"
     showgrid="false"
     units="in"
     inkscape:window-width="1278"
     inkscape:window-height="808"
     inkscape:window-x="1920"
     inkscape:window-y="20"
     inkscape:window-maximized="0"
     fit-margin-top="0"
     fit-margin-left="0"
     fit-margin-right="0"
     fit-margin-bottom="0"
     borderlayer="true"
     inkscape:showpageshadow="true"
     showborder="true"
     showguides="true" />
  <metadata
     id="metadata7">
    <rdf:RDF>
      <cc:Work
         rdf:about="">
        <dc:format>image/svg+xml</dc:format>
        <dc:type
           rdf:resource="http://purl.org/dc/dcmitype/StillImage" />
        <dc:title></dc:title>
      </cc:Work>
    </rdf:RDF>
  </metadata>
  <g
     inkscape:groupmode="layer"
     id="layer2"
     inkscape:label="foreground" />
  <g
     inkscape:label="background"
     inkscape:groupmode="layer"
     id="layer1"
     transform="translate(0,-782.3622)"
     style="display:inline;opacity:1">
    <path
       style="display:inline;opacity:1;fill:#981b1e;fill-opacity:1;stroke:none;stroke-width:10.80000019;stroke-linejoin:miter;stroke-miterlimit:4;stroke-dasharray:none;stroke-opacity:1"
       d="m 135,0 c -3.84041,0.02771428 -7.67788,0.2192948 -11.50195,0.57421875 -2.2454,0.21597591 -4.48504,0.48819685 -6.7168,0.81640625 -2.22415,0.2800348 -4.44099,0.6154253 -6.64844,1.0058594 -2.20662,0.4372557 -4.40196,0.929597 -6.58398,1.4765625 -2.19194,0.5014778 -4.371003,1.0576409 -6.535158,1.6679687 -2.147548,0.6550806 -4.278419,1.3636344 -6.390625,2.125 -2.132876,0.7178542 -4.24747,1.4889285 -6.341797,2.3125 -2.082035,0.8700994 -4.141927,1.7922644 -6.177734,2.7656254 -2.036219,0.922522 -4.04921,1.895478 -6.03711,2.917968 -1.989549,1.075529 -3.951757,2.200884 -5.884765,3.375 -1.937687,1.122892 -3.847132,2.293828 -5.726563,3.511719 -1.852394,1.255965 -3.673269,2.5578 -5.460937,3.904297 -1.836255,1.324244 -3.638909,2.694469 -5.40625,4.109375 -1.716102,1.433946 -3.396308,2.910313 -5.039063,4.427734 -1.687974,1.494887 -3.338231,3.031827 -4.949219,4.609375 -1.577548,1.610988 -3.114488,3.261245 -4.609375,4.949219 -1.517421,1.642755 -2.993788,3.322961 -4.427734,5.039063 -1.414906,1.767341 -2.785131,3.569995 -4.109375,5.40625 -1.346497,1.787668 -2.648332,3.608543 -3.904297,5.460937 -1.217891,1.879431 -2.388827,3.788876 -3.511719,5.726563 -1.174116,1.933008 -2.299471,3.895216 -3.375,5.884765 -1.02249,1.9879 -1.995446,4.000891 -2.917968,6.03711 -0.973361,2.035807 -1.895526,4.095699 -2.7656254,6.177734 -0.8235715,2.094327 -1.5946458,4.208921 -2.3125,6.341797 -0.7613656,2.112206 -1.4699194,4.243077 -2.125,6.390625 -0.6103278,2.164155 -1.1664909,4.343218 -1.6679687,6.535158 -0.5469655,2.18202 -1.0393068,4.37736 -1.4765625,6.58398 -0.3904341,2.20745 -0.7258246,4.42429 -1.0058594,6.64844 -0.3282094,2.23176 -0.60043034,4.4714 -0.81640625,6.7168 C 0.2192948,127.32212 0.02771428,131.15959 0,135 c 0.02771428,3.84041 0.2192948,7.67788 0.57421875,11.50195 0.21597591,2.2454 0.48819685,4.48504 0.81640625,6.7168 0.2800348,2.22415 0.6154253,4.44099 1.0058594,6.64844 0.4372557,2.20662 0.929597,4.40196 1.4765625,6.58398 0.5014777,2.19194 1.0576408,4.371 1.6679687,6.53516 0.6550807,2.14755 1.3636345,4.27842 2.125,6.39062 0.7178542,2.13288 1.4889285,4.24747 2.3125,6.3418 0.8700994,2.08203 1.7922644,4.14192 2.7656254,6.17773 0.922522,2.03622 1.895478,4.04921 2.917968,6.03711 1.075529,1.98955 2.200884,3.95176 3.375,5.88477 1.122892,1.93769 2.293828,3.84713 3.511719,5.72656 1.255965,1.85239 2.5578,3.67327 3.904297,5.46094 1.324244,1.83626 2.694469,3.63891 4.109375,5.40625 1.433946,1.7161 2.910313,3.39631 4.427734,5.03906 1.494886,1.68797 3.031827,3.33823 4.609375,4.94922 1.610988,1.57755 3.261245,3.11449 4.949219,4.60938 1.642755,1.51742 3.322961,2.99379 5.039063,4.42773 1.767341,1.41491 3.569995,2.78512 5.40625,4.10938 1.787668,1.34648 3.608543,2.64833 5.460937,3.90429 1.879431,1.21789 3.788876,2.38883 5.726563,3.51172 1.933008,1.17412 3.895216,2.29947 5.884765,3.375 1.9879,1.02249 4.000891,1.99545 6.03711,2.91797 2.035807,0.97336 4.095699,1.89552 6.177734,2.76562 2.094327,0.82357 4.208921,1.59465 6.341797,2.3125 2.112206,0.76137 4.243077,1.46992 6.390625,2.125 2.164155,0.61033 4.343218,1.16649 6.535158,1.66797 2.18202,0.54697 4.37736,1.03931 6.58398,1.47657 2.20745,0.39043 4.42429,0.72582 6.64844,1.00586 2.23176,0.32821 4.4714,0.60043 6.7168,0.8164 3.82407,0.35492 7.66154,0.54651 11.50195,0.57422 3.92819,-0.0312 7.85315,-0.23389 11.76367,-0.60742 1.84425,-0.18539 3.68448,-0.40875 5.51953,-0.66992 2.72755,-0.33237 5.44431,-0.74793 8.14649,-1.2461 0.56591,-0.12266 1.13103,-0.24897 1.69531,-0.3789 -1.98794,-0.95065 -3.31981,-1.90845 -5.28516,-3.03321 -2.30975,-1.32184 -4.50293,-2.75747 -6.56836,-4.31836 -2.06542,-1.5609 -4.00225,-3.2464 -5.80078,-5.06836 -1.79853,-1.82197 -3.45771,-3.77972 -4.96679,-5.88476 -1.50908,-2.10504 -2.86934,-4.35743 -4.06641,-6.76758 -1.19707,-2.41014 -2.23126,-4.97758 -3.09375,-7.71484 -0.86249,-2.73726 -1.55324,-5.64408 -2.05859,-8.73047 -0.50536,-3.08639 -0.82552,-6.35301 -0.95118,-9.81055 l 0.0371,0 0,-0.002 54.09961,0 c -0.54292,1.8291 -0.80059,3.54886 -0.80859,5.16015 -0.008,1.61129 0.23259,3.11402 0.68945,4.50782 0.45686,1.3938 1.12886,2.67887 1.98047,3.85547 0.85161,1.1766 1.88427,2.24536 3.06055,3.20507 1.17627,0.9597 2.49689,1.80963 3.92773,2.55274 1.43085,0.74311 2.97062,1.37944 4.58594,1.90625 1.61532,0.52682 3.30545,0.94504 5.03516,1.25586 1.7297,0.31082 3.49943,0.51427 5.27343,0.60937 1.76154,0.0944 3.52733,0.0808 5.26368,-0.0371 1.7482,-0.12027 3.46682,-0.34823 5.11914,-0.68359 7.10767,-1.74915 17.1221,-8.4699 14.89862,-17.5998 -0.25042,-1.03017 -0.70903,-2.03414 -1.34961,-2.87891 -0.78572,-1.03617 -1.76739,-1.74335 -2.95507,-2.54687 -1.18769,-0.80351 -2.55976,-1.56299 -4.06641,-2.2832 -1.50665,-0.72021 -3.14821,-1.40126 -4.87109,-2.04688 -3.44577,-1.29126 -7.22175,-2.44112 -10.91602,-3.48633 -3.69426,-1.04522 -7.30686,-1.98459 -10.42773,-2.85351 -7.51716,-2.09636 -15.06205,-4.05238 -22.17188,-6.33203 -3.55491,-1.13983 -7.00257,-2.36062 -10.28125,-3.72071 -3.27867,-1.3601 -6.38922,-2.85998 -9.27539,-4.55664 -1.44308,-0.84833 -2.82919,-1.74494 -4.15234,-2.69922 -1.32316,-0.95428 -2.58279,-1.96626 -3.77149,-3.04101 -1.18869,-1.07476 -2.30795,-2.2121 -3.34765,-3.42188 -1.0397,-1.20979 -2.00079,-2.49221 -2.87696,-3.85156 -0.87617,-1.35934 -1.66712,-2.79687 -2.36523,-4.32031 -0.69811,-1.52342 -1.30309,-3.13192 -1.80859,-4.83399 -0.50551,-1.70207 -0.91061,-3.49734 -1.20899,-5.39257 -0.29838,-1.89527 -0.48971,-3.8912 -0.56641,-5.99415 -0.067,-1.83381 -0.0454,-3.62625 0.0625,-5.37695 0.10787,-1.75071 0.3021,-3.45984 0.57618,-5.12695 0.27408,-1.6671 0.62894,-3.292 1.06054,-4.875 0.43161,-1.583 0.93909,-3.1227 1.51953,-4.6211 1.16087,-2.9968 2.61036,-5.82507 4.31446,-8.48046 1.70409,-2.65539 3.66396,-5.13923 5.84179,-7.44922 2.17782,-2.30999 4.57419,-4.44565 7.15625,-6.40625 2.58205,-1.96059 5.34883,-3.74633 8.26563,-5.35352 2.9168,-1.6072 5.98394,-3.03536 9.16602,-4.28516 3.18204,-1.24979 6.47961,-2.32057 9.85742,-3.20898 3.3778,-0.88839 6.83577,-1.594167 10.33984,-2.117187 1.75656,-0.26219 3.52353,-0.478427 5.29883,-0.648437 0.33867,-0.0326 0.67842,-0.05478 1.01758,-0.08398 0.55549,-0.04762 1.11139,-0.09822 1.66797,-0.136719 0.88833,-0.06169 1.77775,-0.11199 2.66796,-0.15039 1.78042,-0.0768 3.56245,-0.106452 5.34375,-0.08984 l 0,-0.002 c 1.7813,0.01663 3.56188,0.07958 5.33594,0.189453 3.54812,0.21974 7.07315,0.627465 10.53906,1.22461 3.4659,0.59712 6.91041,1.52353 10.22461,2.50195 18.20855,6.72485 29.44976,17.33493 33.63086,33.85156 0.0102,-0.19854 0.02,-0.39711 0.0293,-0.5957 -0.0277,-3.84041 -0.2193,-7.67788 -0.57422,-11.50195 -0.21597,-2.2454 -0.48821,-4.48504 -0.8164,-6.7168 -0.28004,-2.22415 -0.61543,-4.44099 -1.00586,-6.64844 -0.43726,-2.20662 -0.9296,-4.40196 -1.47657,-6.58398 -0.50148,-2.19194 -1.05764,-4.371001 -1.66797,-6.535156 -0.65508,-2.147548 -1.36363,-4.278419 -2.125,-6.390625 -0.71785,-2.132876 -1.48893,-4.24747 -2.3125,-6.341797 -0.8701,-2.082035 -1.79226,-4.141927 -2.76562,-6.177734 -0.92252,-2.036219 -1.89548,-4.04921 -2.91797,-6.03711 -1.07553,-1.989549 -2.20088,-3.951757 -3.375,-5.884765 -1.12289,-1.937687 -2.29383,-3.847132 -3.51172,-5.726563 -1.25596,-1.852394 -2.55781,-3.673269 -3.90429,-5.460937 -1.32426,-1.836255 -2.69447,-3.638909 -4.10938,-5.40625 -1.43394,-1.716102 -2.91031,-3.396308 -4.42773,-5.039063 -1.49489,-1.687974 -3.03183,-3.338231 -4.60938,-4.949219 -1.61099,-1.577548 -3.26125,-3.114489 -4.94922,-4.609375 -1.64275,-1.517421 -3.32296,-2.993788 -5.03906,-4.427734 -1.76734,-1.414906 -3.56999,-2.785131 -5.40625,-4.109375 -1.78767,-1.346497 -3.60855,-2.648332 -5.46094,-3.904297 -1.87943,-1.217891 -3.78887,-2.388827 -5.72656,-3.511719 -1.93301,-1.174116 -3.89522,-2.299471 -5.88477,-3.375 -1.9879,-1.02249 -4.00089,-1.995446 -6.03711,-2.917968 -2.03581,-0.973361 -4.0957,-1.895526 -6.17773,-2.7656254 -2.09433,-0.8235715 -4.20892,-1.5946458 -6.3418,-2.3125 -2.1122,-0.7613655 -4.24307,-1.4699193 -6.39062,-2.125 -2.16416,-0.6103279 -4.34322,-1.166491 -6.53516,-1.6679687 -2.1822,-0.5466975 -4.37736,-1.0393068 -6.58398,-1.4765625 C 157.65974,2.0060503 155.4429,1.6706598 153.21875,1.390625 150.98699,1.0624156 148.74735,0.79019466 146.50195,0.57421875 142.67788,0.2192948 138.84041,0.02771428 135,0 Z m 74.57422,135.19336 c -9.83941,0.0193 -19.83261,4.53727 -20.8457,13.30273 -1.40132,12.46102 19.5062,18.24312 35.02539,21.53516 24.72357,5.24454 34.03971,11.21578 37.00586,13.66016 3.41288,-8.83694 5.88613,-18.00856 7.3789,-27.36329 l 0.002,-0.01 -39.04101,0 c 0,0 1.85678,-8.53787 -1.14258,-12.88672 -3.17029,-5.5472 -10.72994,-8.25331 -18.38281,-8.23828 z"
       id="path6176"
       inkscape:connector-curvature="0"
       sodipodi:nodetypes="cccccccccccccccccccccccccccccccccccccccccccccccccccccccccccccccccsssssssccccsssssssccccssssscssssssssssccsssssssssscccsccsscccccccccccccccccccccccccccccccccccscccccsc"
       inkscape:export-xdpi="1666.67"
       inkscape:export-ydpi="1666.67"
       transform="translate(0,782.3622)" />
  </g>
  <g
     style="display:inline;opacity:1"
     transform="translate(0,-782.3622)"
     id="g4167"
     inkscape:groupmode="layer"
     inkscape:label="background copy">
    <path
       inkscape:export-ydpi="1666.67"
       inkscape:export-xdpi="1666.67"
       sodipodi:nodetypes="cccccccccccccccccccccccccccccccccccccccccccccccccccccccccccccccccsssssssccccsssssssccccssssscssssssssssccsssssssssscccsccsscccccccccccccccccccccccccccccccccccscccccsc"
       inkscape:connector-curvature="0"
       id="path4169"
       d="m 135,0 c -3.84041,0.02771428 -7.67788,0.2192948 -11.50195,0.57421875 -2.2454,0.21597591 -4.48504,0.48819685 -6.7168,0.81640625 -2.22415,0.2800348 -4.44099,0.6154253 -6.64844,1.0058594 -2.20662,0.4372557 -4.40196,0.929597 -6.58398,1.4765625 -2.19194,0.5014778 -4.371003,1.0576409 -6.535158,1.6679687 -2.147548,0.6550806 -4.278419,1.3636344 -6.390625,2.125 -2.132876,0.7178542 -4.24747,1.4889285 -6.341797,2.3125 -2.082035,0.8700994 -4.141927,1.7922644 -6.177734,2.7656254 -2.036219,0.922522 -4.04921,1.895478 -6.03711,2.917968 -1.989549,1.075529 -3.951757,2.200884 -5.884765,3.375 -1.937687,1.122892 -3.847132,2.293828 -5.726563,3.511719 -1.852394,1.255965 -3.673269,2.5578 -5.460937,3.904297 -1.836255,1.324244 -3.638909,2.694469 -5.40625,4.109375 -1.716102,1.433946 -3.396308,2.910313 -5.039063,4.427734 -1.687974,1.494887 -3.338231,3.031827 -4.949219,4.609375 -1.577548,1.610988 -3.114488,3.261245 -4.609375,4.949219 -1.517421,1.642755 -2.993788,3.322961 -4.427734,5.039063 -1.414906,1.767341 -2.785131,3.569995 -4.109375,5.40625 -1.346497,1.787668 -2.648332,3.608543 -3.904297,5.460937 -1.217891,1.879431 -2.388827,3.788876 -3.511719,5.726563 -1.174116,1.933008 -2.299471,3.895216 -3.375,5.884765 -1.02249,1.9879 -1.995446,4.000891 -2.917968,6.03711 -0.973361,2.035807 -1.895526,4.095699 -2.7656254,6.177734 -0.8235715,2.094327 -1.5946458,4.208921 -2.3125,6.341797 -0.7613656,2.112206 -1.4699194,4.243077 -2.125,6.390625 -0.6103278,2.164155 -1.1664909,4.343218 -1.6679687,6.535158 -0.5469655,2.18202 -1.0393068,4.37736 -1.4765625,6.58398 -0.3904341,2.20745 -0.7258246,4.42429 -1.0058594,6.64844 -0.3282094,2.23176 -0.60043034,4.4714 -0.81640625,6.7168 C 0.2192948,127.32212 0.02771428,131.15959 0,135 c 0.02771428,3.84041 0.2192948,7.67788 0.57421875,11.50195 0.21597591,2.2454 0.48819685,4.48504 0.81640625,6.7168 0.2800348,2.22415 0.6154253,4.44099 1.0058594,6.64844 0.4372557,2.20662 0.929597,4.40196 1.4765625,6.58398 0.5014777,2.19194 1.0576408,4.371 1.6679687,6.53516 0.6550807,2.14755 1.3636345,4.27842 2.125,6.39062 0.7178542,2.13288 1.4889285,4.24747 2.3125,6.3418 0.8700994,2.08203 1.7922644,4.14192 2.7656254,6.17773 0.922522,2.03622 1.895478,4.04921 2.917968,6.03711 1.075529,1.98955 2.200884,3.95176 3.375,5.88477 1.122892,1.93769 2.293828,3.84713 3.511719,5.72656 1.255965,1.85239 2.5578,3.67327 3.904297,5.46094 1.324244,1.83626 2.694469,3.63891 4.109375,5.40625 1.433946,1.7161 2.910313,3.39631 4.427734,5.03906 1.494886,1.68797 3.031827,3.33823 4.609375,4.94922 1.610988,1.57755 3.261245,3.11449 4.949219,4.60938 1.642755,1.51742 3.322961,2.99379 5.039063,4.42773 1.767341,1.41491 3.569995,2.78512 5.40625,4.10938 1.787668,1.34648 3.608543,2.64833 5.460937,3.90429 1.879431,1.21789 3.788876,2.38883 5.726563,3.51172 1.933008,1.17412 3.895216,2.29947 5.884765,3.375 1.9879,1.02249 4.000891,1.99545 6.03711,2.91797 2.035807,0.97336 4.095699,1.89552 6.177734,2.76562 2.094327,0.82357 4.208921,1.59465 6.341797,2.3125 2.112206,0.76137 4.243077,1.46992 6.390625,2.125 2.164155,0.61033 4.343218,1.16649 6.535158,1.66797 2.18202,0.54697 4.37736,1.03931 6.58398,1.47657 2.20745,0.39043 4.42429,0.72582 6.64844,1.00586 2.23176,0.32821 4.4714,0.60043 6.7168,0.8164 3.82407,0.35492 7.66154,0.54651 11.50195,0.57422 3.92819,-0.0312 7.85315,-0.23389 11.76367,-0.60742 1.84425,-0.18539 3.68448,-0.40875 5.51953,-0.66992 2.72755,-0.33237 5.44431,-0.74793 8.14649,-1.2461 0.56591,-0.12266 1.13103,-0.24897 1.69531,-0.3789 -1.98794,-0.95065 -3.31981,-1.90845 -5.28516,-3.03321 -2.30975,-1.32184 -4.50293,-2.75747 -6.56836,-4.31836 -2.06542,-1.5609 -4.00225,-3.2464 -5.80078,-5.06836 -1.79853,-1.82197 -3.45771,-3.77972 -4.96679,-5.88476 -1.50908,-2.10504 -2.86934,-4.35743 -4.06641,-6.76758 -1.19707,-2.41014 -2.23126,-4.97758 -3.09375,-7.71484 -0.86249,-2.73726 -1.55324,-5.64408 -2.05859,-8.73047 -0.50536,-3.08639 -0.82552,-6.35301 -0.95118,-9.81055 l 0.0371,0 0,-0.002 54.09961,0 c -0.54292,1.8291 -0.80059,3.54886 -0.80859,5.16015 -0.008,1.61129 0.23259,3.11402 0.68945,4.50782 0.45686,1.3938 1.12886,2.67887 1.98047,3.85547 0.85161,1.1766 1.88427,2.24536 3.06055,3.20507 1.17627,0.9597 2.49689,1.80963 3.92773,2.55274 1.43085,0.74311 2.97062,1.37944 4.58594,1.90625 1.61532,0.52682 3.30545,0.94504 5.03516,1.25586 1.7297,0.31082 3.49943,0.51427 5.27343,0.60937 1.76154,0.0944 3.52733,0.0808 5.26368,-0.0371 1.7482,-0.12027 3.46682,-0.34823 5.11914,-0.68359 7.10767,-1.74915 17.1221,-8.4699 14.89862,-17.5998 -0.25042,-1.03017 -0.70903,-2.03414 -1.34961,-2.87891 -0.78572,-1.03617 -1.76739,-1.74335 -2.95507,-2.54687 -1.18769,-0.80351 -2.55976,-1.56299 -4.06641,-2.2832 -1.50665,-0.72021 -3.14821,-1.40126 -4.87109,-2.04688 -3.44577,-1.29126 -7.22175,-2.44112 -10.91602,-3.48633 -3.69426,-1.04522 -7.30686,-1.98459 -10.42773,-2.85351 -7.51716,-2.09636 -15.06205,-4.05238 -22.17188,-6.33203 -3.55491,-1.13983 -7.00257,-2.36062 -10.28125,-3.72071 -3.27867,-1.3601 -6.38922,-2.85998 -9.27539,-4.55664 -1.44308,-0.84833 -2.82919,-1.74494 -4.15234,-2.69922 -1.32316,-0.95428 -2.58279,-1.96626 -3.77149,-3.04101 -1.18869,-1.07476 -2.30795,-2.2121 -3.34765,-3.42188 -1.0397,-1.20979 -2.00079,-2.49221 -2.87696,-3.85156 -0.87617,-1.35934 -1.66712,-2.79687 -2.36523,-4.32031 -0.69811,-1.52342 -1.30309,-3.13192 -1.80859,-4.83399 -0.50551,-1.70207 -0.91061,-3.49734 -1.20899,-5.39257 -0.29838,-1.89527 -0.48971,-3.8912 -0.56641,-5.99415 -0.067,-1.83381 -0.0454,-3.62625 0.0625,-5.37695 0.10787,-1.75071 0.3021,-3.45984 0.57618,-5.12695 0.27408,-1.6671 0.62894,-3.292 1.06054,-4.875 0.43161,-1.583 0.93909,-3.1227 1.51953,-4.6211 1.16087,-2.9968 2.61036,-5.82507 4.31446,-8.48046 1.70409,-2.65539 3.66396,-5.13923 5.84179,-7.44922 2.17782,-2.30999 4.57419,-4.44565 7.15625,-6.40625 2.58205,-1.96059 5.34883,-3.74633 8.26563,-5.35352 2.9168,-1.6072 5.98394,-3.03536 9.16602,-4.28516 3.18204,-1.24979 6.47961,-2.32057 9.85742,-3.20898 3.3778,-0.88839 6.83577,-1.594167 10.33984,-2.117187 1.75656,-0.26219 3.52353,-0.478427 5.29883,-0.648437 0.33867,-0.0326 0.67842,-0.05478 1.01758,-0.08398 0.55549,-0.04762 1.11139,-0.09822 1.66797,-0.136719 0.88833,-0.06169 1.77775,-0.11199 2.66796,-0.15039 1.78042,-0.0768 3.56245,-0.106452 5.34375,-0.08984 l 0,-0.002 c 1.7813,0.01663 3.56188,0.07958 5.33594,0.189453 3.54812,0.21974 7.07315,0.627465 10.53906,1.22461 3.4659,0.59712 6.91041,1.52353 10.22461,2.50195 18.20855,6.72485 29.44976,17.33493 33.63086,33.85156 0.0102,-0.19854 0.02,-0.39711 0.0293,-0.5957 -0.0277,-3.84041 -0.2193,-7.67788 -0.57422,-11.50195 -0.21597,-2.2454 -0.48821,-4.48504 -0.8164,-6.7168 -0.28004,-2.22415 -0.61543,-4.44099 -1.00586,-6.64844 -0.43726,-2.20662 -0.9296,-4.40196 -1.47657,-6.58398 -0.50148,-2.19194 -1.05764,-4.371001 -1.66797,-6.535156 -0.65508,-2.147548 -1.36363,-4.278419 -2.125,-6.390625 -0.71785,-2.132876 -1.48893,-4.24747 -2.3125,-6.341797 -0.8701,-2.082035 -1.79226,-4.141927 -2.76562,-6.177734 -0.92252,-2.036219 -1.89548,-4.04921 -2.91797,-6.03711 -1.07553,-1.989549 -2.20088,-3.951757 -3.375,-5.884765 -1.12289,-1.937687 -2.29383,-3.847132 -3.51172,-5.726563 -1.25596,-1.852394 -2.55781,-3.673269 -3.90429,-5.460937 -1.32426,-1.836255 -2.69447,-3.638909 -4.10938,-5.40625 -1.43394,-1.716102 -2.91031,-3.396308 -4.42773,-5.039063 -1.49489,-1.687974 -3.03183,-3.338231 -4.60938,-4.949219 -1.61099,-1.577548 -3.26125,-3.114489 -4.94922,-4.609375 -1.64275,-1.517421 -3.32296,-2.993788 -5.03906,-4.427734 -1.76734,-1.414906 -3.56999,-2.785131 -5.40625,-4.109375 -1.78767,-1.346497 -3.60855,-2.648332 -5.46094,-3.904297 -1.87943,-1.217891 -3.78887,-2.388827 -5.72656,-3.511719 -1.93301,-1.174116 -3.89522,-2.299471 -5.88477,-3.375 -1.9879,-1.02249 -4.00089,-1.995446 -6.03711,-2.917968 -2.03581,-0.973361 -4.0957,-1.895526 -6.17773,-2.7656254 -2.09433,-0.8235715 -4.20892,-1.5946458 -6.3418,-2.3125 -2.1122,-0.7613655 -4.24307,-1.4699193 -6.39062,-2.125 -2.16416,-0.6103279 -4.34322,-1.166491 -6.53516,-1.6679687 -2.1822,-0.5466975 -4.37736,-1.0393068 -6.58398,-1.4765625 C 157.65974,2.0060503 155.4429,1.6706598 153.21875,1.390625 150.98699,1.0624156 148.74735,0.79019466 146.50195,0.57421875 142.67788,0.2192948 138.84041,0.02771428 135,0 Z m 74.57422,135.19336 c -9.83941,0.0193 -19.83261,4.53727 -20.8457,13.30273 -1.40132,12.46102 19.5062,18.24312 35.02539,21.53516 24.72357,5.24454 34.03971,11.21578 37.00586,13.66016 3.41288,-8.83694 5.88613,-18.00856 7.3789,-27.36329 l 0.002,-0.01 -39.04101,0 c 0,0 1.85678,-8.53787 -1.14258,-12.88672 -3.17029,-5.5472 -10.72994,-8.25331 -18.38281,-8.23828 z"
       style="display:inline;opacity:1;fill:#981b1e;fill-opacity:1;stroke:none;stroke-width:10.80000019;stroke-linejoin:miter;stroke-miterlimit:4;stroke-dasharray:none;stroke-opacity:1"
       transform="translate(0,782.3622)" />
  </g>
</svg>
