<svg id="email" xmlns="http://www.w3.org/2000/svg" xmlns:xlink="http://www.w3.org/1999/xlink" viewBox="0 0 100 100"><defs><clipPath id="clip-path" transform="translate(0.14 -0.15)"><rect x="-0.14" y="0.15" width="100" height="100" style="fill:none"/></clipPath></defs><title>icon-social-email</title><circle cx="50" cy="50" r="50" style="fill:#007cb9"/><g style="clip-path:url(#clip-path)"><g id="Icon_Share_Mail" data-name="Icon Share Mail"><g style="clip-path:url(#clip-path)"><path d="M69.3,72.37H30.41A11.11,11.11,0,0,1,19.3,61.26V39A11.11,11.11,0,0,1,30.41,27.93H69.3A11.11,11.11,0,0,1,80.41,39V61.26A11.11,11.11,0,0,1,69.3,72.37" transform="translate(0.14 -0.15)" style="fill:#fff"/><polyline points="16.67 72.22 50 44.44 83.33 72.22" style="fill:none;stroke:#007cb9;stroke-miterlimit:10;stroke-width:4.16666759422662px"/><polygon points="66.67 44.44 50 58.33 33.33 44.44 50 33.33 66.67 44.44" style="fill:#fff"/><path d="M83.19,30.71,53.41,55.51a5.56,5.56,0,0,1-7.11,0L16.52,30.71" transform="translate(0.14 -0.15)" style="fill:none;stroke:#007cb9;stroke-miterlimit:10;stroke-width:4.16666759422662px"/></g></g></g></svg>