<?xml version="1.0" standalone="no"?>
<!DOCTYPE svg PUBLIC "-//W3C//DTD SVG 20010904//EN"
 "http://www.w3.org/TR/2001/REC-SVG-20010904/DTD/svg10.dtd">
<svg version="1.0" xmlns="http://www.w3.org/2000/svg"
 width="700.000000pt" height="700.000000pt" viewBox="0 0 700.000000 700.000000"
 preserveAspectRatio="xMidYMid meet">
<metadata>
Created by potrace 1.11, written by Peter Selinger 2001-2013
</metadata>
<g transform="translate(0.000000,700.000000) scale(0.100000,-0.100000)"
fill="#000000" stroke="none">
<path d="M3265 6993 c-116 -10 -381 -47 -455 -63 -337 -76 -557 -150 -835
-284 -434 -209 -770 -467 -1130 -869 -221 -246 -468 -657 -600 -997 -103 -268
-188 -594 -211 -810 -3 -36 -8 -67 -9 -70 -11 -18 -20 -228 -19 -425 0 -200
14 -381 38 -510 2 -11 7 -42 11 -70 3 -27 24 -122 45 -210 122 -507 342 -957
669 -1370 48 -61 234 -271 252 -285 3 -3 51 -47 106 -97 572 -530 1280 -842
2093 -922 176 -17 543 -6 745 23 99 14 193 29 209 32 l29 6 -24 19 c-13 10
-28 19 -32 19 -17 0 -232 143 -302 200 -279 228 -452 580 -481 984 -3 39 -7
76 -9 83 -2 7 1 16 8 20 12 7 1352 12 1375 5 12 -4 11 -32 -4 -115 -1 -9 1
-42 6 -73 40 -243 322 -407 695 -404 151 1 238 19 342 71 148 74 252 202 258
317 6 127 -44 194 -205 274 -127 63 -223 97 -480 169 -118 33 -327 92 -465
131 -408 114 -619 191 -790 285 -282 156 -453 360 -525 626 -29 110 -35 170
-34 342 1 217 36 368 129 549 68 133 127 216 228 317 104 106 124 123 222 191
280 195 611 313 1020 363 110 14 504 14 590 1 22 -4 69 -11 105 -17 335 -51
655 -204 866 -414 49 -49 110 -119 133 -154 52 -76 126 -229 152 -314 l19 -62
-5 159 c-3 88 -7 162 -9 165 -2 3 -7 38 -10 76 -27 290 -128 681 -253 974
-216 506 -531 937 -953 1301 -35 30 -68 60 -74 65 -6 6 -21 17 -32 25 -12 8
-69 49 -125 91 -346 252 -772 448 -1203 555 -154 38 -254 56 -476 85 -81 10
-511 19 -595 12z"/>
<path d="M5308 3484 c-192 -30 -332 -118 -391 -244 -30 -63 -30 -179 0 -235
84 -157 332 -286 733 -380 279 -65 521 -126 595 -150 202 -66 369 -139 465
-204 24 -17 48 -27 52 -23 15 16 78 206 125 382 17 66 63 287 63 306 0 12 -85
14 -505 14 l-505 0 5 23 c22 99 8 236 -31 303 -93 163 -346 250 -606 208z"/>
</g>
</svg>
