<?xml version="1.0" encoding="utf-8"?>
<!-- Generator: Adobe Illustrator 16.0.3, SVG Export Plug-In . SVG Version: 6.00 Build 0)  -->
<!DOCTYPE svg PUBLIC "-//W3C//DTD SVG 1.1//EN" "http://www.w3.org/Graphics/SVG/1.1/DTD/svg11.dtd">
<svg version="1.1" id="Layer_1" xmlns="http://www.w3.org/2000/svg" xmlns:xlink="http://www.w3.org/1999/xlink" x="0px" y="0px"
	 width="1024px" height="1024px" viewBox="0 0 1024 1024" enable-background="new 0 0 1024 1024" xml:space="preserve">
<path fill="#990000" d="M872.357,580.77c49.803,0,99.602,0,149.404,0c-5.407,32.513-12.914,62.962-21.344,92.452
	c-42.083-21.344-90.319-39.379-149.366-53.359c-51.649-12.201-136.917-20.096-131.614-71.106
	C725.482,490.384,892.207,498.779,872.357,580.77z"/>
<path fill="#990000" d="M1021.762,452.714c-12.81,3.841-18.462-11.987-24.901-17.787
	C853.007,305.554,523.046,366.809,530.942,587.85c4.519,126.741,116.922,149.827,227.622,181.413
	c45.959,13.092,120.907,30.452,128.021,60.474c23.265,97.609-213.358,92.45-181.377-17.786c-66.379,0-132.789,0-199.167,0
	c3.701,104.19,53.463,162.316,128.023,195.608C285.962,1081.832,19.601,844.89,0.998,545.202
	C-17.215,252.375,215.85-17.045,541.614,1.026C814.52,16.109,976.657,203.606,1021.762,452.714z"/>
</svg>
